<svg xmlns="http://www.w3.org/2000/svg" width="281.999" height="249.106" viewBox="0 0 281.999 249.106"><defs><style>.a{fill:#4cda4a;}</style></defs><g transform="translate(-0.001 -20.566)"><path class="a" d="M269.685,22.474c-12.725-6.852-26.919,6.363-35.239,14.194C215.359,55.266,199.208,76.8,181.1,96.378c-20.067,21.535-38.665,43.07-59.221,64.116-11.746,11.746-24.472,24.472-32.3,39.155-17.62-17.131-32.792-35.729-52.369-50.9C23.011,137.981-.481,130.15.008,156.09c.979,33.772,30.834,69.99,52.859,92.992,9.3,9.789,21.535,20.067,35.729,20.556,17.13.979,34.75-19.577,45.028-30.834,18.11-19.577,32.793-41.6,49.433-61.668,21.535-26.429,43.559-52.37,64.605-79.289C260.875,81.206,302.477,40.093,269.685,22.474ZM21.542,154.132a3.7,3.7,0,0,0-1.958.489,23.817,23.817,0,0,1-5.384-1.958h0Q16.4,151.195,21.542,154.132Z" transform="translate(0)"/></g></svg>